<?xml version="1.0" standalone="no"?>
<!DOCTYPE svg PUBLIC "-//W3C//DTD SVG 20010904//EN"
 "http://www.w3.org/TR/2001/REC-SVG-20010904/DTD/svg10.dtd">
<svg version="1.0" xmlns="http://www.w3.org/2000/svg"
 width="655.000000pt" height="430.000000pt" viewBox="0 0 655.000000 430.000000"
 preserveAspectRatio="xMidYMid meet">

<g transform="translate(0.000000,430.000000) scale(0.100000,-0.100000)"
fill="#000000" stroke="none">
<path d="M0 2150 l0 -2150 3275 0 3275 0 -2 2148 -3 2147 -3272 3 -3273 2 0
-2150z m3725 1531 c39 -10 113 -37 165 -60 98 -44 383 -209 420 -243 46 -43 2
-33 -128 29 -343 165 -451 203 -569 203 -131 0 -275 -58 -645 -260 l-78 -42 0
44 0 44 118 67 c179 101 379 195 462 216 95 25 166 26 255 2z m629 -455 c20
-79 35 -520 20 -560 -4 -10 -18 -16 -36 -16 l-30 0 5 273 c5 262 10 327 27
327 4 0 11 -11 14 -24z m-1104 -156 l0 -40 -367 0 c-405 0 -703 15 -703 36 0
25 268 40 733 42 l337 2 0 -40z m-981 -141 c6 -27 11 -101 11 -163 0 -121 -4
-129 -52 -118 -16 3 -18 17 -18 115 0 98 9 169 25 215 9 24 23 3 34 -49z m301
-749 c7 -232 15 -265 83 -334 l48 -48 77 3 c90 5 127 25 167 93 48 82 61 367
20 429 -9 15 -15 34 -11 42 7 20 60 20 76 0 18 -22 7 -340 -15 -420 -49 -182
-185 -257 -369 -205 -56 17 -119 80 -152 153 -26 58 -28 72 -32 222 -4 149 -6
163 -29 204 -32 54 -23 62 67 59 l65 -3 5 -195z m948 177 c2 -11 -9 -32 -25
-49 -28 -29 -28 -32 -31 -164 -2 -74 0 -134 5 -134 9 0 107 74 270 203 94 74
112 93 120 125 l9 37 64 3 c62 2 112 -13 82 -25 -52 -21 -442 -328 -442 -348
0 -15 204 -208 264 -248 190 -129 381 -173 629 -141 32 4 37 1 37 -15 0 -28
-47 -36 -215 -36 -276 1 -428 64 -665 274 -69 61 -130 111 -136 111 -20 0 -24
-27 -24 -151 0 -122 9 -159 44 -188 9 -8 16 -22 16 -32 0 -18 -9 -19 -120 -19
-134 0 -143 5 -95 62 l25 30 0 312 0 313 -30 38 c-46 58 -32 66 104 63 99 -3
111 -5 114 -21z m710 17 c22 -6 22 -9 22 -170 0 -90 5 -187 11 -216 28 -130
99 -198 206 -198 30 0 33 -3 33 -31 l0 -32 -83 5 c-99 5 -154 31 -204 96 -50
66 -64 126 -70 304 -5 145 -7 160 -29 190 -18 24 -21 35 -13 45 12 13 86 18
127 7z m-2025 -25 c54 -27 94 -65 118 -111 26 -51 26 -165 0 -217 -27 -53 -92
-108 -143 -121 -24 -6 -47 -13 -53 -14 -18 -6 98 -107 175 -152 157 -93 306
-131 472 -121 162 9 256 44 329 119 25 26 52 48 60 48 8 0 25 -19 38 -42 28
-50 27 -51 -86 -98 -135 -56 -222 -73 -383 -74 -176 0 -273 21 -425 94 -131
63 -264 174 -263 220 1 26 5 30 30 30 75 0 178 85 199 164 12 44 4 117 -17
157 -23 45 -92 97 -137 104 -62 10 -78 15 -72 26 11 18 114 10 158 -12z m774
-943 c110 -29 201 -100 247 -191 95 -192 34 -401 -147 -504 -205 -115 -468
-37 -569 168 -18 36 -24 67 -26 146 -3 90 -1 107 21 157 34 76 71 122 132 163
103 68 230 91 342 61z m525 -8 c8 -7 68 -137 132 -288 65 -151 123 -281 130
-288 11 -11 15 -7 26 20 8 18 23 56 36 83 12 28 52 122 89 210 37 88 78 184
90 213 l24 52 85 0 c48 0 86 -2 86 -5 0 -2 -13 -26 -30 -52 l-30 -47 0 -267 0
-267 25 -30 c46 -55 38 -62 -80 -62 -117 0 -122 3 -80 60 l25 34 0 256 c0 141
-3 260 -7 263 -7 8 -22 -26 -132 -288 -106 -255 -96 -239 -161 -243 l-56 -3
-93 218 c-52 120 -101 235 -110 255 -9 21 -19 38 -23 38 -5 0 -8 -116 -8 -257
1 -205 4 -263 15 -283 25 -44 20 -50 -45 -50 -67 0 -76 12 -40 57 19 24 20 41
20 303 l0 277 -26 38 c-14 21 -23 44 -20 51 7 18 136 19 158 2z m-1102 -2 c0
-2 -12 -28 -27 -57 l-28 -53 0 -251 0 -250 27 -49 c15 -26 25 -52 22 -57 -7
-12 -201 -12 -208 0 -3 5 7 31 22 57 25 45 27 58 27 159 l0 110 -98 3 c-87 2
-98 5 -95 20 3 14 18 17 96 20 109 3 107 0 100 146 -3 77 -9 103 -31 146 -15
28 -27 54 -27 56 0 2 50 4 110 4 61 0 110 -2 110 -4z m2100 -10 c0 -9 -12 -16
-27 -18 l-28 -3 -3 -157 -3 -158 31 0 c23 0 30 -4 30 -20 0 -16 -7 -20 -30
-20 l-31 0 3 -147 3 -148 28 -3 c19 -2 27 -9 27 -23 0 -18 -8 -19 -110 -19
-76 0 -110 4 -110 12 0 6 11 34 25 63 l26 52 -3 250 c-3 248 -3 249 -30 301
l-27 52 114 0 c93 0 115 -3 115 -14z"/>
<path d="M2757 1363 c-131 -38 -184 -210 -122 -392 59 -174 164 -271 293 -271
237 0 296 356 94 572 -79 85 -175 117 -265 91z"/>
</g>
</svg>
